<?xml version="1.0" encoding="UTF-8"?>
<svg width="15px" height="12px" viewBox="0 0 15 12" version="1.1" xmlns="http://www.w3.org/2000/svg" xmlns:xlink="http://www.w3.org/1999/xlink">
    <title>noun-arrow-1739032@1.5x</title>
    <g id="Style-blue" stroke="none" stroke-width="1" fill="none" fill-rule="evenodd">
        <g id="overzicht-dieren---ok" transform="translate(-851.000000, -1125.000000)" fill="#FFFFFF" fill-rule="nonzero">
            <g id="overlay" transform="translate(539.000000, 1080.000000)">
                <g id="Group" transform="translate(312.000000, 45.000000)">
                    <path d="M15,5.99972373 C14.98875,5.86532256 14.9353231,5.68588941 14.8500061,5.58524642 L10.3500097,0.216762557 C10.1537139,-0.0637620052 9.7489932,-0.062833576 9.4999004,0.166595802 C9.2508076,0.39602518 9.23181761,0.803678224 9.45000744,1.04571719 L13.0781325,5.36813925 L0.59999952,5.36813925 C0.268649785,5.36813925 0,5.65089963 0,5.99972373 C0,6.34854784 0.268649785,6.63130821 0.59999952,6.63130821 L13.0781325,6.63130821 L9.45001044,10.9537145 C9.21193063,11.1957377 9.27888458,11.610815 9.52798038,11.840238 C9.77707618,12.0696611 10.1537169,12.0533031 10.3500127,11.7826691 L14.8500091,6.41420105 C14.970282,6.27705248 14.993229,6.1282196 15,5.99972373 L15,5.99972373 Z" id="Path"></path>
                </g>
            </g>
        </g>
    </g>
</svg>